<svg xmlns:xlink="http://www.w3.org/1999/xlink" xmlns="http://www.w3.org/2000/svg" viewBox="0 0 51 26" style="width: 20px;" width="51"  height="26" ><defs><style>.cls-1-fees{fill:#3da8c0;}.cls-2-fees,.cls-3-fees{fill:#fff;}.cls-3-fees{stroke:#fff;stroke-width:0.8px;}.cls-3-fees,.cls-4-fees{stroke-miterlimit:10;}.cls-4-fees{fill:none;stroke:#3da8c0;}</style></defs><title>Egp</title><g id="Layer_2" data-name="Layer 2"><g id="Layer_1-2" data-name="Layer 1"><rect class="cls-1-fees" x="0.5" y="0.5" width="50" height="25" rx="2" ry="2" fill="#3DA8C0"></rect><path class="cls-2-fees" d="M49.49.5a1,1,0,0,1,1,1v5.4a4.91,4.91,0,0,1-.86.08A5.63,5.63,0,0,1,44,1.36,4.91,4.91,0,0,1,44.09.5Z" fill="#FFFFFF"></path><path class="cls-2-fees" d="M7,1.36A5.63,5.63,0,0,1,1.36,7,4.91,4.91,0,0,1,.5,6.91V1.84A1.34,1.34,0,0,1,1.84.5H6.91A4.91,4.91,0,0,1,7,1.36Z" fill="#FFFFFF"></path><path class="cls-2-fees" d="M50.5,18.79V24.3a1.2,1.2,0,0,1-1.2,1.2H44.13A6.34,6.34,0,0,1,44,24.34a5.63,5.63,0,0,1,5.63-5.63A4.11,4.11,0,0,1,50.5,18.79Z" fill="#FFFFFF"></path><path class="cls-2-fees" d="M7,24.34a6.34,6.34,0,0,1-.12,1.16H1.37a.87.87,0,0,1-.87-.87V18.79a4.11,4.11,0,0,1,.86-.08A5.63,5.63,0,0,1,7,24.34Z" fill="#FFFFFF"></path><circle class="cls-2-fees" cx="41.5" cy="13" r="2" fill="#FFFFFF"></circle><circle class="cls-2-fees" cx="9.5" cy="13" r="2" fill="#FFFFFF"></circle><path class="cls-3-fees" d="M19.54,13.25h-3v2.93h3.38v.88H15.5V8.94h4.22v.88H16.51v2.57h3Z" stroke="#FFFFFF" fill="#FFFFFF" stroke-width="0.8px"></path><path class="cls-3-fees" d="M28.15,16.7a7.1,7.1,0,0,1-2.4.44,3.91,3.91,0,0,1-2.92-1.07,4.27,4.27,0,0,1-1.09-3A4,4,0,0,1,26,8.86a4.71,4.71,0,0,1,2,.37l-.25.85A4,4,0,0,0,26,9.74,3,3,0,0,0,22.81,13c0,2.06,1.19,3.28,3,3.28a3.14,3.14,0,0,0,1.34-.22V13.64H25.57V12.8h2.58Z" stroke="#FFFFFF" fill="#FFFFFF" stroke-width="0.8px"></path><path class="cls-3-fees" d="M30.69,9a10.75,10.75,0,0,1,1.94-.16,3.12,3.12,0,0,1,2.19.68,2.19,2.19,0,0,1,.68,1.69A2.46,2.46,0,0,1,34.9,13a3.18,3.18,0,0,1-2.39.89,3.35,3.35,0,0,1-.81-.07v3.25h-1Zm1,3.91a3.23,3.23,0,0,0,.83.09c1.22,0,2-.62,2-1.74s-.73-1.59-1.84-1.59a3.88,3.88,0,0,0-.95.09Z" stroke="#FFFFFF" fill="#FFFFFF" stroke-width="0.8px"></path><rect class="cls-4-fees" x="0.5" y="0.5" width="50" height="25" rx="2" ry="2" stroke="#3DA8C0" fill="none"></rect></g></g></svg>