<svg xmlns:xlink="http://www.w3.org/1999/xlink" xmlns="http://www.w3.org/2000/svg" viewBox="0 0 50 47.74" style="width: 25px;" width="50"  height="47.74" ><defs><style>.cls-1-star{fill:#3da8c0;}</style></defs><title>rating</title><g id="Layer_2" data-name="Layer 2"><g id="Layer_1-2" data-name="Layer 1"><path class="cls-1-star" d="M17.12,14.61,23.94.6a1.08,1.08,0,0,1,1.93,0l7,13.93a1.06,1.06,0,0,0,.81.59l15.42,2.15a1.08,1.08,0,0,1,.61,1.83L38.58,30a1.1,1.1,0,0,0-.3,1L41,46.31a1.08,1.08,0,0,1-1.56,1.14L25.62,40.28a1.07,1.07,0,0,0-1,0L10.87,47.61a1.07,1.07,0,0,1-1.56-1.12l2.55-15.37a1.09,1.09,0,0,0-.32-.95L.33,19.36a1.08,1.08,0,0,1,.59-1.84l15.4-2.32A1,1,0,0,0,17.12,14.61Z" fill="#3DA8C0"></path></g></g></svg>