<svg xmlns:xlink="http://www.w3.org/1999/xlink" xmlns="http://www.w3.org/2000/svg" viewBox="0 0 52 54" style="width: 20px;" width="52"  height="54" ><defs><style>.cls-1-video{fill:#3da8c0;}.cls-2-video{fill:#f4794c;}</style></defs><title>session</title><g id="Layer_2" data-name="Layer 2"><g id="Layer_1-2" data-name="Layer 1"><path class="cls-1-video" d="M5.46,26.88v-18A1.68,1.68,0,0,1,7.92,7.36L25.3,16.48l17.32,9a1.65,1.65,0,0,1,0,2.88l-17.32,9L7.92,46.4a1.68,1.68,0,0,1-2.46-1.47Z" fill="#3DA8C0"></path><path class="cls-2-video" d="M4.13,2a2.11,2.11,0,0,1,1,.25l22,11.56L48.94,25.17a2.11,2.11,0,0,1,0,3.66L27.16,40.19l-22,11.56A2.12,2.12,0,0,1,2,49.89V4.11A2.12,2.12,0,0,1,4.13,2m0-2h0A4.13,4.13,0,0,0,0,4.11V49.89A4.13,4.13,0,0,0,4.13,54a4,4,0,0,0,1.92-.48L28.09,42,49.86,30.6l0,0,0,0a4.1,4.1,0,0,0,0-7.12l0,0,0,0L28.09,12,6.05.48A4,4,0,0,0,4.13,0Z" fill="#F4794C"></path></g></g></svg>