<svg xmlns:xlink="http://www.w3.org/1999/xlink" xmlns="http://www.w3.org/2000/svg" width="27" height="15" viewBox="0 0 27 15"><defs><style>.a{fill:#666669;}</style></defs><g transform="translate(1 -98.725)"><path class="a" d="M12.5,98.725a17.4,17.4,0,0,0-13.3,6.9,1,1,0,0,0,0,1.189,17.392,17.392,0,0,0,13.3,6.908,17.4,17.4,0,0,0,13.3-6.9,1,1,0,0,0,0-1.189A17.392,17.392,0,0,0,12.5,98.725Zm.343,12.781a5.293,5.293,0,1,1,4.9-4.937A5.279,5.279,0,0,1,12.843,111.506Zm-.159-2.44a2.85,2.85,0,1,1,2.644-2.661A2.836,2.836,0,0,1,12.684,109.066Z"/></g></svg>