<svg xmlns:xlink="http://www.w3.org/1999/xlink" xmlns="http://www.w3.org/2000/svg" width="14" height="16" viewBox="0 0 14 16"><defs><style>.a{fill:#666669;}</style></defs><path class="a" d="M41.823,2.585c0-.012,0-.025,0-.037V.41A.4.4,0,0,0,41.426,0H28.236a.4.4,0,0,0-.4.4v2.15c0,.012-.008.025,0,.037s0,.012,0,.016v.021a.036.036,0,0,0,0,.021.031.031,0,0,1,0,.016.175.175,0,0,1,0,.021s0,.012,0,.016,0,.012.008.021,0,.012.008.016,0,.012.008.016a.031.031,0,0,1,.008.016s.008.012.008.016.008.012.013.016.008.008.008.012a.021.021,0,0,1,.013,0L32.942,8.6V15.59a.4.4,0,0,0,.23.369.425.425,0,0,0,.176.041.415.415,0,0,0,.26-.09l2.956-2.351a.4.4,0,0,0,.147-.32V8.6l5.016-5.785a.013.013,0,0,0,.008,0l.013-.012s.008-.012.013-.016.008-.012.013-.016a783.059,783.059,0,0,1,.017-.033s0-.012.008-.016,0-.012.008-.021a.024.024,0,0,0,0-.016.036.036,0,0,0,0-.021c0-.008,0-.012,0-.016a.175.175,0,0,0,0-.021.175.175,0,0,1,0-.021S41.819,2.589,41.823,2.585Zm-5.841,5.6a.423.423,0,0,0-.109.267v4.595L33.78,14.728V8.447a.423.423,0,0,0-.109-.267L29.14,2.954H40.513Zm5-6.047H28.671V.821H40.982Z" transform="translate(-27.828)" stroke="#4D4D4F" fill="#666669" stroke-width="0.2px"></path></svg>